DataType=double
version=3
OpenSimVersion=4.5-2024-01-10-34fd6af
endheader
time	ground_force_1_vx	ground_force_1_vy	ground_force_1_vz	ground_force_1_px	ground_force_1_py	ground_force_1_pz	ground_moment_1_mx	ground_moment_1_my	ground_moment_1_mz	ground_force_2_vx	ground_force_2_vy	ground_force_2_vz	ground_force_2_px	ground_force_2_py	ground_force_2_pz	ground_moment_2_mx	ground_moment_2_my	ground_moment_2_mz
0	-0.934146184	12.79202515	4.161166498	1.225217085719295	0	0.2040560999623005	0	0.783664279300565	0	-72.97363928999999	772.0882446000001	-76.73363353000001	1.066609429636556	0	0.6001597682278257	0	5.590902805386524	0
0.01	-0.577525443	8.836222936	4.011125889	1.106690054425115	0	0.2150343505767196	0	0.6389358482037504	0	-71.04364943	767.3325195	-79.28144177	1.068676679026234	0	0.6017846116857275	0	4.254044226132557	0
0.02	-0.249515508	5.360296115	3.913731145	0.8700281557125166	0	0.2371284102397362	0	0.02438327534710319	0	-68.49770126999999	760.4362738999999	-81.58902247	1.069283171477016	0	0.6035402774002325	0	3.026982301132723	0
0.03	-2.32e-18	3.86e-15	2.03e-16	0.8195502510977265	0	0.2404965338681078	0	-1.17e-18	0	-65.46157061	751.671693	-83.27831608	1.068337056446233	0	0.6053608647394425	0	1.999454982185522	0
0.04	-5.1e-22	8.44e-19	4.61e-20	0.8195502510977265	0	0.2404965338681078	0	-2.7e-22	0	-62.00974459	741.6151872	-84.09892206000001	1.065890831845386	0	0.6071684049599846	0	1.215206052593345	0
0.05	-1.11e-25	1.85e-22	9.87e-24	0.8195502510977265	0	0.2404965338681078	0	-6.22e-26	0	-58.30706574	731.0443602	-83.95541745	1.062172028797531	0	0.608892949581481	0	0.6685088724630432	0
0.06	-2.35e-29	4.05e-26	2.16e-27	0.8195502510977265	0	0.2404965338681078	0	-1.16e-29	0	-54.477824	720.7270412	-82.97889902	1.057430301058853	0	0.6104821942906069	0	0.3256644633488435	0
0.07000000000000001	-4.57e-33	8.86e-30	4.75e-31	0.8195502510977265	0	0.2404965338681078	0	-2.55e-33	0	-50.68084877	711.2626131	-81.40440011	1.051921979313897	0	0.6118983574166085	0	0.1358819554645478	0
0.08	-1.14e-36	1.94e-33	1.06e-34	0.8195502510977265	0	0.2404965338681078	0	-6.05e-37	0	-47.07427193	703.1787859	-79.50031025	1.045896349161742	0	0.613127767725941	0	0.05033934017967923	0
0.09	-2.51e-40	4.26e-37	2.3e-38	0.8195502510977265	0	0.2404965338681078	0	-1.37e-40	0	-43.77225716	696.9080484999999	-77.48235409	1.039516750137016	0	0.6141617380052831	0	0.04219696788241478	0
0.1	-5.22e-44	9.32e-41	4.91e-42	0.8195502510977265	0	0.2404965338681078	0	-2.68e-44	0	-40.882517	692.9126648	-75.49563318	1.032957755908167	0	0.6150090625270677	0	0.08678116133346592	0
0.11	-1.23e-47	2.04e-44	1.09e-45	0.8195502510977265	0	0.2404965338681078	0	-6.41e-48	0	-38.40395284	691.5429924	-73.6411872	1.026266133840677	0	0.6156696581400868	0	0.1738895738261856	0
0.12	-2.69e-51	4.47e-48	2.37e-49	0.8195502510977265	0	0.2404965338681078	0	-1.47e-51	0	-36.34837036	693.0980241	-71.97262969000001	1.019516003865331	0	0.6161573659336381	0	0.288218195286662	0
0.13	-5.91e-55	9.79e-52	5.38e-53	0.8195502510977265	0	0.2404965338681078	0	-2.88e-55	0	-34.64050831	697.6521813000001	-70.53370486999999	1.012722895099913	0	0.6164827327335473	0	0.420371611301956	0
0.14	-1.26e-58	2.14e-55	1.17e-56	0.8195502510977265	0	0.2404965338681078	0	-6.72e-59	0	-33.20151458	705.1330078	-69.34797061	1.005901308047985	0	0.6166706496806457	0	0.5539680116476262	0
0.15	-2.84e-62	4.7e-59	2.5e-60	0.8195502510977265	0	0.2404965338681078	0	-1.42e-62	0	-31.89172096	715.2059063	-68.44500803	0.9990567798974297	0	0.6167473324583163	0	0.6741089139048082	0
0.16	-6.19e-66	1.03e-62	5.51e-64	0.8195502510977265	0	0.2404965338681078	0	-2.93e-66	0	-30.56378815	727.3076138	-67.84790181	0.9921534017112899	0	0.6167385775622053	0	0.7724002462956552	0
0.17	-1.48e-69	2.25e-66	1.23e-67	0.8195502510977265	0	0.2404965338681078	0	-7.340000000000001e-70	0	-29.07606084	740.6635335	-67.55248981	0.9851713047044901	0	0.6166607807594819	0	0.8449337547831792	0
0.18	-3.03e-73	4.94e-70	2.67e-71	0.8195502510977265	0	0.2404965338681078	0	-1.46e-73	0	-27.265645	754.3633913	-67.51466910000001	0.9780575764098316	0	0.6165206389879097	0	0.9033237363960644	0
0.19	-6.26e-77	1.08e-73	5.88e-75	0.8195502510977265	0	0.2404965338681078	0	-3.32e-77	0	-25.03019245	767.4565397	-67.65356229	0.970806285986356	0	0.6163193845137891	0	0.9558336770572353	0
0.2	-3.18e-80	2.33e-77	1.26e-78	0.8195502510977265	0	0.2404965338681078	0	-1.19e-80	0	-22.23789647	778.9838489	-67.89636262	0.9633596958147922	0	0.6160497313179422	0	1.019900784824971	0
0.21	-8.960000000000001e-77	-1.68e-75	-4.01e-77	0.8195502510977265	0	0.2404965338681078	0	-2.08e-77	0	-18.83796868	788.1126598	-68.15973416	0.9556912024177988	0	0.6157046858907981	0	1.106311570821493	0
0.22	-4.42e-73	-7.66e-72	-1.87e-73	0.8195502510977265	0	0.2404965338681078	0	-8.73e-74	0	-14.79439917	794.1356214	-68.37987766000001	0.9477940640711822	0	0.6152716014498935	0	1.232961567149255	0
0.23	-1.81e-69	-3.49e-68	-8.47e-70	0.8195502510977265	0	0.2404965338681078	0	-3.76e-70	0	-10.15547009	796.5793323	-68.51023198999999	0.9396622984092807	0	0.614741066110739	0	1.414434202196752	0
0.24	-8.38e-66	-1.6e-64	-3.88e-66	0.8195502510977265	0	0.2404965338681078	0	-1.93e-66	0	-5.011635956	795.2527635	-68.47234732	0.9313259164597889	0	0.6141011206037499	0	1.659265940124588	0
0.25	-4.01e-62	-7.29e-61	-1.74e-62	0.8195502510977265	0	0.2404965338681078	0	-8.58e-63	0	0.49793707	790.3168227	-68.20722938999999	0.9227948185843371	0	0.6133419477726287	0	1.96883487553624	0
0.26	-1.78e-58	-3.33e-57	-8e-59	0.8195502510977265	0	0.2404965338681078	0	-4.08e-59	0	6.18164606	782.2940609	-67.63939473000001	0.9141301570481475	0	0.6124613550191123	0	2.334517385122281	0
0.27	-8.05e-55	-1.52e-53	-3.69e-55	0.8195502510977265	0	0.2404965338681078	0	-1.68e-55	0	11.86568209	771.9791996	-66.72971597	0.905401220893875	0	0.6114681904361369	0	2.740534287217988	0
0.28	-3.55e-51	-6.94e-50	-1.7e-51	0.8195502510977265	0	0.2404965338681078	0	-8.77e-52	0	17.34174021	760.3069475999999	-65.53243709	0.896726486903303	0	0.6103889975388572	0	3.154729605412196	0
0.29	-1.74e-47	-3.17e-46	-7.65e-48	0.8195502510977265	0	0.2404965338681078	0	-3.89e-48	0	22.47627768	748.2344957	-64.14439072	0.8882059091662337	0	0.609266157202763	0	3.551019972937281	0
0.3	-7.64e-44	-1.45e-42	-3.49e-44	0.8195502510977265	0	0.2404965338681078	0	-1.79e-44	0	27.12453675	736.6271636	-62.71798311	0.8799538338141357	0	0.6081552836092556	0	3.898259130559954	0
0.31	-3.79e-40	-6.6e-39	-1.6e-40	0.8195502510977265	0	0.2404965338681078	0	-8.47e-41	0	31.18038305	726.1846492	-61.45852011	0.8721184432067446	0	0.607121153246901	0	4.166477068383836	0
0.32	-1.67e-36	-3.02e-35	-7.17e-37	0.8195502510977265	0	0.2404965338681078	0	-3.5e-37	0	34.53049369	717.4183002	-60.52382086	0.8648413247039785	0	0.6062252447945422	0	4.33444183975269	0
0.33	-7.41e-33	-1.38e-31	-3.35e-33	0.8195502510977265	0	0.2404965338681078	0	-1.73e-33	0	37.09449993	710.6850052999999	-60.06307399	0.8582623495469255	0	0.6055270271904457	0	4.391442247763136	0
0.34	-3.35e-29	-6.29e-28	-1.52e-29	0.8195502510977265	0	0.2404965338681078	0	-8.09e-30	0	38.85514567	706.1481495	-60.15660483	0.8524683092161077	0	0.6050676103440853	0	4.335283220154263	0
0.35	-1.62e-25	-2.87e-24	-6.93e-26	0.8195502510977265	0	0.2404965338681078	0	-3.47e-26	0	39.82268508	703.8569050999999	-60.81867608	0.8475137819324281	0	0.6048807049449253	0	4.166593555131591	0
0.36	-7.01e-22	-1.31e-20	-3.1e-22	0.8195502510977265	0	0.2404965338681078	0	-1.54e-22	0	40.09390288	703.6530762	-62.03285432	0.84338197964927	0	0.6049743989940846	0	3.897951157826445	0
0.37	-3.36e-18	-5.980000000000001e-17	-1.43e-18	0.8195502510977265	0	0.2404965338681078	0	-6.84e-19	0	39.82778509	705.2844812	-63.71259752	0.8399966076687824	0	0.6053365421789917	0	3.548875738263375	0
0.38	-1.18e-14	-2.24e-13	-5.41e-15	0.8195502510977265	0	0.2404965338681078	0	-2.64e-15	0	39.28126949	708.3535744	-65.72620671999999	0.8372389462201449	0	0.6059301806858433	0	3.148116098816418	0
0.39	19.35161522	17.58413553	0.687596192	0.9633789601454439	0	0.4070016351285506	0	1.16409993688226	0	38.72735152	712.294091	-67.88898156	0.8349428514209202	0	0.6067042106026077	0	2.726795216134169	0
0.4	24.54790976	40.37789471	-1.034746272	1.060264218846839	0	0.3914514641034984	0	1.571861531007813	0	38.45304517	716.3104896999999	-69.95884891999999	0.8329390453269802	0	0.6075953909039554	0	2.313210148622576	0
0.41	28.31217394	71.77706283000001	-3.010916041	1.093038554129755	0	0.3858368552561235	0	1.680457729741991	0	38.70216089	719.4382011	-71.66431931	0.8310785840104724	0	0.6085389915271141	0	1.930973694778825	0
0.42	28.80212534	111.5232408	-4.952712578	1.108348561019151	0	0.3831005784234557	0	1.682769339672945	0	39.60042172	720.5634135	-72.70220734	0.8292206488954827	0	0.609474340269533	0	1.600380596466723	0
0.43	24.43529368	158.4367174	-6.407416358	1.117225460379739	0	0.3815050406500086	0	1.666368402081344	0	41.17747598	718.4035601	-72.79976628	0.8272527962767903	0	0.6103443068396901	0	1.342599521063394	0
0.44	15.44459225	211.1041149	-7.021386746	1.123187688768535	0	0.3803295284261878	0	1.619808570502768	0	43.31308669	711.6270432	-71.72632796000001	0.8251413885310604	0	0.6111095208459681	0	1.163926995804878	0
0.45	3.423541282	267.2236227	-6.441707705	1.12723492197095	0	0.3791831292953615	0	1.491769687220331	0	45.79876629	698.8254292	-69.33426661999999	0.8228814147918199	0	0.6117466729414541	0	1.061425818872651	0
0.46	-9.791544304	322.0316212	-3.828085669	1.129451683472964	0	0.378085351838509	0	1.344838616813954	0	48.30375546	678.5861862	-65.64324623	0.8205008701287263	0	0.6122497248534486	0	1.026601027487947	0
0.47	-22.47266922	370.7326741	1.253033652	1.129715179719538	0	0.3771223554063988	0	1.301609321574074	0	50.44361135	649.6871713	-60.75395845	0.8180284142691144	0	0.6126185290127215	0	1.058241753888211	0
0.48	-33.51489545	411.9059026	7.945246613	1.128145945157101	0	0.376205062119725	0	1.301867953037951	0	51.78353855	611.5374777	-54.82850002	0.815548874567195	0	0.6128756665720738	0	1.147806662575954	0
0.49	-42.61371182	446.7575625	15.54685865	1.125071104591953	0	0.3753106944677954	0	1.371532836952379	0	51.882008	564.3017297	-48.16180711	0.8131207764827161	0	0.6130476660249184	0	1.284622502251862	0
0.5	-49.70038167	477.8700399	23.34843863	1.120771772183506	0	0.3744234542362327	0	1.470079167290076	0	50.42462051	508.9716531	-41.13159788	0.8108071243423562	0	0.6131682312374596	0	1.455896397086348	0
0.51	-54.96851564	507.6554386	30.68649104	1.115550819543129	0	0.3735671120860794	0	1.56645901143316	0	47.15636048	447.3426602	-34.09771977	0.8086640122694544	0	0.6132806609687523	0	1.634021311042071	0
0.52	-58.51072602	537.7130293	37.29131249	1.109659381432687	0	0.3727323386849727	0	1.670577101196923	0	42.07078523	381.844757	-27.41200475	0.8066826103842043	0	0.6134282565002375	0	1.803506047579707	0
0.53	-60.42021756	568.4754037	42.90111022	1.103301076287562	0	0.3719205187471918	0	1.757982375481498	0	35.34616154	315.4542281	-21.34391175	0.8049301232533123	0	0.6136735737631762	0	1.939504757556282	0
0.54	-60.88238753	599.684127	47.67493	1.096703814977199	0	0.3710714135663993	0	1.854817134678878	0	27.51805307	251.3207229	-16.10534351	0.8033793429564092	0	0.6140993401936899	0	2.030849654391753	0
0.55	-60.11754374	630.554562	51.79293109	1.090109130980987	0	0.3701433893768623	0	1.961506858382316	0	19.36245524	192.3502559	-11.81646869	0.8019318996290387	0	0.6148435145948951	0	2.073032005545906	0
0.5600000000000001	-58.49401053	660.1778959	55.41779649	1.083641478148456	0	0.369082501025146	0	2.077291132385765	0	11.72586965	140.73387	-8.476857489	0.8002459640002589	0	0.6161342897407857	0	2.071832714339634	0
0.57	-56.32332845	687.5113560999999	58.82838224	1.077465943873874	0	0.3678623681384342	0	2.214436717245466	0	5.281623603	97.64270581	-6.028289356	0.7976322124649515	0	0.6183582699996195	0	2.046411063395574	0
0.58	-53.91635872	711.608777	62.1386013	1.071548553530132	0	0.3664834423038928	0	2.361781512371627	0	0.332813313	63.37705322	-4.322800419	0.7927404751334771	0	0.6223817486035021	0	2.019575594382186	0
0.59	-51.46033021	731.6513926	65.44369512999999	1.065900410918361	0	0.3649777298463576	0	2.52011789450485	0	-3.104251455	37.51204193	-3.17518152	0.7823115647865211	0	0.6303170903353523	0	2.025944049036583	0
0.6	-49.04413647	747.2411317999999	68.69437282	1.060404928444598	0	0.363391384368092	0	2.686152590488271	0	-5.229803932	19.22088553	-2.47372225	0.7571979423949239	0	0.6489737034944308	0	2.13824881534422	0
